<?xml version="1.0" encoding="utf-8"?>
<!-- Generator: Adobe Illustrator 16.0.3, SVG Export Plug-In . SVG Version: 6.00 Build 0)  -->
<!DOCTYPE svg PUBLIC "-//W3C//DTD SVG 1.1//EN" "http://www.w3.org/Graphics/SVG/1.1/DTD/svg11.dtd">
<svg version="1.1" id="Layer_1" xmlns="http://www.w3.org/2000/svg" xmlns:xlink="http://www.w3.org/1999/xlink" x="0px" y="0px"
	 width="575.939px" height="721.799px" viewBox="-674.434 41.998 575.939 721.799"
	 enable-background="new -674.434 41.998 575.939 721.799" xml:space="preserve">
<g>
	<path fill="#66838B" d="M-104.387,461.657c-7.938-7.938-20.838-7.938-28.775,0l-253.023,253.519l-253.52-253.519
		c-7.938-7.938-20.837-7.938-28.775,0c-7.938,7.938-7.938,20.837,0,28.774l267.411,267.411c3.969,3.971,8.931,5.955,14.388,5.955
		c4.961,0,10.419-1.986,14.388-5.955l267.411-267.411C-96.45,482.494-96.45,469.594-104.387,461.657z"/>
</g>
<g>
	<path fill="#66838B" d="M-668.542,344.137c7.938,7.938,20.838,7.938,28.775,0l253.023-253.52l253.52,253.52
		c7.938,7.938,20.837,7.938,28.775,0c7.938-7.938,7.938-20.837,0-28.774L-371.859,47.952c-3.969-3.97-8.931-5.954-14.388-5.954
		c-4.961,0-10.419,1.985-14.388,5.954l-267.411,267.411C-676.479,323.3-676.479,336.2-668.542,344.137z"/>
</g>
</svg>
