<?xml version="1.0" encoding="utf-8"?>
<svg version="1.1" xmlns="http://www.w3.org/2000/svg" xmlns:xlink="http://www.w3.org/1999/xlink" height="22.908919336376584" width="22.908919336376584">
  <defs>
    <path id="path-0" opacity="1" d="M11.454459668188068,18.722316811045246 C10.912037146032748,18.722316811045246 10.47231681104521,18.28259647605763 10.47231681104521,17.740173953902385 C10.47231681104521,17.197751431747143 10.912037146032748,16.75803109675953 11.454459668188068,16.75803109675953 C14.383541287633165,16.75803109675953 16.7580310967595,14.383541287633113 16.7580310967595,11.4544596681881 C16.7580310967595,8.934156607670841 14.985979206320527,6.775867859107921 12.551618538778065,6.2643069249673875 C12.193933297027069,6.189142304195249 11.826978198511778,6.15088823961667 11.454459668188068,6.15088823961667 C11.123246233027011,6.15088823961667 10.796403231944577,6.181128879623641 10.476504878651117,6.240688755354711 C7.985414151977564,6.704489373857659 6.150888239616638,8.88948840469505 6.150888239616638,11.4544596681881 C6.150888239616638,11.996882190343342 5.711167904629098,12.436602525330956 5.16874538247378,12.436602525330956 C4.626322860318462,12.436602525330956 4.1866025253309225,11.996882190343342 4.1866025253309225,11.4544596681881 C4.1866025253309225,7.939093898277822 6.699759352362094,4.945816346619528 10.116965316216955,4.309588118310776 C10.555293584566165,4.227978516624734 11.002488259153,4.1866025253309544 11.454459668188068,4.1866025253309544 C11.96292246467431,4.1866025253309544 12.465247314446664,4.238968515939517 12.955574172653902,4.342006684836623 C16.29476682155415,5.043710640837167 18.72231681104521,8.000370012473565 18.72231681104521,11.4544596681881 C18.72231681104521,15.468386331943305 15.468386331943265,18.722316811045246 11.454459668188068,18.722316811045246Z"/>
    <path id="path-1" opacity="1" d="M11.454459668188068,3.3830310967595096 C12.32175470667864,3.3830310967595096 13.02588823961664,4.08716462969751 13.02588823961664,4.954459668188082 L13.02588823961664,9.668745382473798 C13.02588823961664,10.536040420964369 12.32175470667864,11.240173953902369 11.454459668188068,11.240173953902369 C10.587164629697495,11.240173953902369 9.883031096759495,10.536040420964369 9.883031096759495,9.668745382473798 L9.883031096759495,4.954459668188082 C9.883031096759495,4.08716462969751 10.587164629697495,3.3830310967595096 11.454459668188068,3.3830310967595096 L11.454459668188068,3.3830310967595096Z"/>
  </defs>
  <g opacity="1">
    <g transform="translate(11.454459668188068, 11.4544596681881) rotate(-225.00008045193758) translate(-11.454459668188068, -11.4544596681881)" opacity="1">
      <use xlink:href="#path-0" fill="#FFF" fill-opacity="1"/>
      <use xlink:href="#path-0" fill-opacity="0" stroke="#4D9EB3" stroke-opacity="1" stroke-width="0.5"/>
    </g>
    <g opacity="1">
      <use xlink:href="#path-1" fill="#FFF" fill-opacity="1"/>
    </g>
  </g>
</svg>
