<?xml version="1.0" encoding="UTF-8"?>
<svg width="90px" height="81px" viewBox="0 0 90 81" version="1.1" xmlns="http://www.w3.org/2000/svg" xmlns:xlink="http://www.w3.org/1999/xlink">
    <!-- Generator: Sketch 51.2 (57519) - http://www.bohemiancoding.com/sketch -->
    <title>Group 19</title>
    <desc>Created with Sketch.</desc>
    <defs></defs>
    <g id="Page-1" stroke="none" stroke-width="1" fill="none" fill-rule="evenodd" opacity="0.7">
        <g id="Detalle-de-contingencia" transform="translate(-1076.000000, -256.000000)" fill="#D8D8D8" fill-rule="nonzero">
            <g id="Group-19" transform="translate(1076.000000, 256.000000)">
                <path d="M79.188129,37.6290144 L79.188129,9.30542068 C79.188129,4.17444683 75.0079702,0 69.8699756,0 L9.3181534,0 C4.18015878,0 0,4.17444683 0,9.30542068 L0,58.7358154 C0,63.8667892 4.18015878,68.041236 9.3181534,68.041236 L45.3305307,68.041236 C49.2293868,75.7159256 57.1930675,81 66.3846346,81 C79.4061387,81 90,70.4206146 90,57.4169037 C90,49.1270028 85.6848159,41.8357668 79.188129,37.6290144 Z M9.3181534,63.8274606 C6.50653247,63.8274606 4.21954116,61.5435944 4.21954116,58.7358154 L4.21954116,9.30542068 C4.21954116,6.49764167 6.50653247,4.2137754 9.3181534,4.2137754 L69.8699756,4.2137754 C72.6815965,4.2137754 74.9685879,6.49764167 74.9685879,9.30542068 L74.9685879,35.4701568 C72.3032444,34.4265451 69.4156717,33.8338073 66.3846346,33.8338073 C64.9935925,33.8338073 63.6377133,33.9784803 62.3113709,34.2102379 L55.4335188,28.6269855 C55.4236732,28.6199625 55.4138276,28.6157488 55.403982,28.6073212 C55.3449084,28.5609697 55.2816153,28.5244503 55.2183222,28.4851217 C55.1606551,28.4486023 55.1058011,28.4092738 55.045321,28.3797773 C55.0003126,28.3573039 54.9524911,28.343258 54.9046696,28.3235937 C54.8230918,28.2898835 54.7429205,28.2547687 54.6585297,28.2308906 C54.6275864,28.2224631 54.5938301,28.2210585 54.5614803,28.2126309 C54.4630243,28.1901575 54.3617553,28.1690886 54.2618929,28.1620656 C54.2225105,28.1592564 54.1803151,28.1634702 54.1409327,28.1620656 C54.0481028,28.160661 53.9538663,28.1578518 53.8610364,28.1690886 C53.810402,28.1747069 53.761174,28.1901575 53.7105395,28.198585 C53.6261487,28.2140355 53.5431643,28.2280814 53.4615865,28.2547687 C53.4151716,28.2702192 53.3701632,28.2926927 53.3223417,28.3123569 C53.2379509,28.3446626 53.1563731,28.3783728 53.0762018,28.4219151 C53.0677627,28.4275335 53.0579171,28.4289381 53.049478,28.4345564 L43.4964368,33.9166782 L32.140245,23.3499341 C32.1289929,23.3386974 32.1121148,23.3358882 32.1008627,23.326056 C31.9095768,23.1546958 31.6957867,23.026878 31.466525,22.9369841 C31.4383947,22.9257474 31.4116709,22.9145106 31.3835407,22.9046785 C31.1542789,22.8260214 30.9179846,22.789502 30.6774708,22.7923112 C30.6465275,22.7923112 30.6155842,22.7923112 30.5846409,22.7937158 C30.3497531,22.8063571 30.1176783,22.8611362 29.8954491,22.9538392 C29.8630993,22.9664805 29.832156,22.9791219 29.7998062,22.9945724 C29.6366506,23.0718249 29.4791211,23.164528 29.3342502,23.2867275 L7.83006189,41.5478255 C6.94255173,42.3006867 6.83425017,43.6308351 7.58954804,44.5171326 C8.0058761,45.0073351 8.60083141,45.258757 9.19719322,45.258757 C9.68103394,45.258757 10.1662812,45.0944198 10.562918,44.7573177 L30.6409014,27.7097871 L47.4628055,43.3653673 C44.5288179,47.2954151 42.7678627,52.1496844 42.7678627,57.4169037 C42.7678627,59.6417771 43.0983934,61.7851842 43.6778771,63.8274606 L9.3181534,63.8274606 Z M50.2744265,40.2218908 L46.7286054,36.9225047 L53.8976058,32.8098599 L57.3702882,35.627471 C54.7246359,36.7244572 52.3349691,38.2961955 50.2744265,40.2218908 Z M66.3846346,76.7862246 C55.6895043,76.7862246 46.9888104,68.0960151 46.9888104,57.4169037 C46.9888104,46.7377922 55.6909108,38.0475827 66.3846346,38.0475827 C77.0783584,38.0475827 85.7804588,46.7377922 85.7804588,57.4169037 C85.7804588,68.0960151 77.079765,76.7862246 66.3846346,76.7862246 Z" id="Shape"></path>
                <path d="M17,26 C21.9623775,26 26,21.9623775 26,17 C26,12.0376225 21.9623775,8 17,8 C12.0376225,8 8,12.0376225 8,17 C8,21.9623775 12.0376225,26 17,26 Z M17,12.2666772 C19.6092317,12.2666772 21.7319001,14.3893456 21.7319001,16.9985773 C21.7319001,19.607809 19.6092317,21.7304774 17,21.7304774 C14.3907683,21.7304774 12.2680999,19.607809 12.2680999,16.9985773 C12.2680999,14.3893456 14.3907683,12.2666772 17,12.2666772 Z" id="Shape"></path>
                <path d="M67.8501398,45.5070849 C67.8417625,45.4999429 67.831989,45.4956576 67.8222155,45.4885156 C67.792895,45.4613758 67.7593858,45.4399497 67.7286691,45.4156668 C67.6798016,45.3799566 67.6281416,45.3456748 67.5764817,45.3142498 C67.5429725,45.2928237 67.5108596,45.2699691 67.4759542,45.2499714 C67.4452375,45.2328305 67.4103321,45.2199749 67.3796154,45.2042624 C67.325163,45.178551 67.2707106,45.1585533 67.214862,45.1371272 C67.175768,45.1214147 67.136674,45.1042738 67.0961838,45.0914181 C67.0640708,45.0814193 67.0291654,45.0757056 66.9970525,45.0671352 C66.9412039,45.0528511 66.8839591,45.0428522 66.8267143,45.0342818 C66.7848278,45.0271398 66.7429414,45.0171409 66.7010549,45.0128557 C66.6633571,45.0085704 66.6228669,45.0099989 66.5851691,45.0085704 C66.5558486,45.007142 66.5293205,45 66.5,45 C66.4706795,45 66.4441514,45.007142 66.4148309,45.0085704 C66.3771331,45.0099989 66.3366429,45.0085704 66.2989451,45.0128557 C66.2570586,45.0171409 66.2151722,45.0271398 66.1732857,45.0342818 C66.1160409,45.0442807 66.0587961,45.0542795 66.0029475,45.0671352 C65.9708346,45.0757056 65.9359292,45.0814193 65.9038162,45.0914181 C65.863326,45.1042738 65.824232,45.1214147 65.785138,45.1371272 C65.7292894,45.1585533 65.674837,45.178551 65.6203846,45.2042624 C65.5896679,45.2199749 65.5561587,45.2342589 65.5240458,45.2499714 C65.4905366,45.2699691 65.4570275,45.2928237 65.4221221,45.3142498 C65.3704622,45.3456748 65.3201984,45.3799566 65.2727271,45.4156668 C65.2406142,45.4399497 65.207105,45.4613758 65.1777845,45.4885156 C65.168011,45.4956576 65.1582375,45.4999429 65.1498602,45.5070849 L56.7432504,52.7705405 C55.8594464,53.5333105 55.7477492,54.8845846 56.4947242,55.788767 C56.9080038,56.2915667 57.4999989,56.5486802 58.0947864,56.5486802 C58.5722919,56.5486802 59.0525898,56.3829848 59.4449262,56.0430237 L64.4056777,51.7563707 L64.4056777,67.8573877 C64.4056777,69.0401097 65.3439341,70 66.5,70 C67.6560659,70 68.5943223,69.0401097 68.5943223,67.8573877 L68.5943223,51.7577991 L73.5550738,56.0444521 C73.9474102,56.3844132 74.4277081,56.5501086 74.9052136,56.5501086 C75.5013973,56.5501086 76.0933925,56.2915667 76.5052758,55.7901954 C77.2522508,54.886013 77.1405536,53.5347389 76.2567496,52.7719689 L67.8501398,45.5070849 Z" id="Shape"></path>
            </g>
        </g>
    </g>
</svg>